{"asset":{"version":"2.0","generator":"Blockbench 5.1.4 glTF exporter"},"scenes":[{"nodes":[19],"name":"blockbench_export"}],"scene":0,"nodes":[{"translation":[0,0.078125,0],"name":"base","mesh":0},{"translation":[0,0.015625,0],"name":"cylinder","mesh":1},{"translation":[0,0.09375,0],"name":"sphere","mesh":2},{"translation":[-0.125,0,-0.125],"name":"cylinder","mesh":3},{"name":"firekeeper","children":[0,1,2,3]},{"name":"Inside","children":[4]},{"translation":[0,0.625,0],"name":"mesh","mesh":4},{"rotation":[0,0,-0.7071067811865475,0.7071067811865476],"translation":[-0.25,0.890625,0],"name":"cylinder","mesh":5},{"rotation":[0,0,0.7071067811865475,0.7071067811865476],"translation":[0.25,0.890625,0],"name":"cylinder","mesh":6},{"name":"Alça","children":[6,7,8]},{"translation":[0,-0.171875,0],"name":"cylinder","mesh":7},{"name":"sphere","mesh":8},{"rotation":[0.5,-0.4999999999999999,0.5,0.5000000000000001],"translation":[0,0.296875,0],"name":"torus","mesh":9},{"translation":[0,-0.0625,0],"name":"beveled_cuboid","mesh":10},{"translation":[0,1.21875,0],"name":"chamine","children":[9,10,11,12,13]},{"rotation":[0,0,-1,6.123233995736766e-17],"translation":[0,1.265625,0],"name":"Top","mesh":11},{"name":"Top","children":[14,15]},{"translation":[0,-0.203125,0],"name":"bottom","mesh":12},{"name":"Body","children":[16,17]},{"name":"Lamp","children":[5,18]}],"bufferViews":[{"buffer":0,"byteOffset":0,"byteLength":288,"target":34962,"byteStride":12},{"buffer":0,"byteOffset":288,"byteLength":288,"target":34962,"byteStride":12},{"buffer":0,"byteOffset":576,"byteLength":192,"target":34962,"byteStride":8},{"buffer":0,"byteOffset":768,"byteLength":72,"target":34963},{"buffer":0,"byteOffset":840,"byteLength":1440,"target":34962,"byteStride":12},{"buffer":0,"byteOffset":2280,"byteLength":1440,"target":34962,"byteStride":12},{"buffer":0,"byteOffset":3720,"byteLength":960,"target":34962,"byteStride":8},{"buffer":0,"byteOffset":4680,"byteLength":288,"target":34963},{"buffer":0,"byteOffset":4968,"byteLength":2160,"target":34962,"byteStride":12},{"buffer":0,"byteOffset":7128,"byteLength":2160,"target":34962,"byteStride":12},{"buffer":0,"byteOffset":9288,"byteLength":1440,"target":34962,"byteStride":8},{"buffer":0,"byteOffset":10728,"byteLength":504,"target":34963},{"buffer":0,"byteOffset":11232,"byteLength":1440,"target":34962,"byteStride":12},{"buffer":0,"byteOffset":12672,"byteLength":1440,"target":34962,"byteStride":12},{"buffer":0,"byteOffset":14112,"byteLength":960,"target":34962,"byteStride":8},{"buffer":0,"byteOffset":15072,"byteLength":288,"target":34963},{"buffer":0,"byteOffset":15360,"byteLength":2304,"target":34962,"byteStride":12},{"buffer":0,"byteOffset":17664,"byteLength":2304,"target":34962,"byteStride":12},{"buffer":0,"byteOffset":19968,"byteLength":1536,"target":34962,"byteStride":8},{"buffer":0,"byteOffset":21504,"byteLength":576,"target":34963},{"buffer":0,"byteOffset":22080,"byteLength":1440,"target":34962,"byteStride":12},{"buffer":0,"byteOffset":23520,"byteLength":1440,"target":34962,"byteStride":12},{"buffer":0,"byteOffset":24960,"byteLength":960,"target":34962,"byteStride":8},{"buffer":0,"byteOffset":25920,"byteLength":288,"target":34963},{"buffer":0,"byteOffset":26208,"byteLength":1440,"target":34962,"byteStride":12},{"buffer":0,"byteOffset":27648,"byteLength":1440,"target":34962,"byteStride":12},{"buffer":0,"byteOffset":29088,"byteLength":960,"target":34962,"byteStride":8},{"buffer":0,"byteOffset":30048,"byteLength":288,"target":34963},{"buffer":0,"byteOffset":30336,"byteLength":2592,"target":34962,"byteStride":12},{"buffer":0,"byteOffset":32928,"byteLength":2592,"target":34962,"byteStride":12},{"buffer":0,"byteOffset":35520,"byteLength":1728,"target":34962,"byteStride":8},{"buffer":0,"byteOffset":37248,"byteLength":576,"target":34963},{"buffer":0,"byteOffset":37824,"byteLength":1248,"target":34962,"byteStride":12},{"buffer":0,"byteOffset":39072,"byteLength":1248,"target":34962,"byteStride":12},{"buffer":0,"byteOffset":40320,"byteLength":832,"target":34962,"byteStride":8},{"buffer":0,"byteOffset":41152,"byteLength":276,"target":34963},{"buffer":0,"byteOffset":41428,"byteLength":4608,"target":34962,"byteStride":12},{"buffer":0,"byteOffset":46036,"byteLength":4608,"target":34962,"byteStride":12},{"buffer":0,"byteOffset":50644,"byteLength":3072,"target":34962,"byteStride":8},{"buffer":0,"byteOffset":53716,"byteLength":1152,"target":34963},{"buffer":0,"byteOffset":54868,"byteLength":912,"target":34962,"byteStride":12},{"buffer":0,"byteOffset":55780,"byteLength":912,"target":34962,"byteStride":12},{"buffer":0,"byteOffset":56692,"byteLength":608,"target":34962,"byteStride":8},{"buffer":0,"byteOffset":57300,"byteLength":216,"target":34963},{"buffer":0,"byteOffset":57516,"byteLength":4704,"target":34962,"byteStride":12},{"buffer":0,"byteOffset":62220,"byteLength":4704,"target":34962,"byteStride":12},{"buffer":0,"byteOffset":66924,"byteLength":3136,"target":34962,"byteStride":8},{"buffer":0,"byteOffset":70060,"byteLength":1080,"target":34963},{"buffer":0,"byteOffset":71140,"byteLength":4800,"target":34962,"byteStride":12},{"buffer":0,"byteOffset":75940,"byteLength":4800,"target":34962,"byteStride":12},{"buffer":0,"byteOffset":80740,"byteLength":3200,"target":34962,"byteStride":8},{"buffer":0,"byteOffset":83940,"byteLength":1104,"target":34963}],"buffers":[{"byteLength":85044,"uri":"data:application/octet-stream;base64,"}],"accessors":[{"bufferView":0,"componentType":5126,"count":24,"max":[0.1875,0.140625,0.1875],"min":[-0.1875,0,-0.1875],"type":"VEC3"},{"bufferView":1,"componentType":5126,"count":24,"max":[1,1,1],"min":[-1,-1,-1],"type":"VEC3"},{"bufferView":2,"componentType":5126,"count":24,"max":[0.734375,0.671875],"min":[0.015625,0.40625],"type":"VEC2"},{"bufferView":3,"componentType":5123,"count":36,"max":[23],"min":[0],"type":"SCALAR"},{"bufferView":4,"componentType":5126,"count":120,"max":[0.09375,0.296875,0.09375],"min":[-0.09375,0.203125,-0.09375],"type":"VEC3"},{"bufferView":5,"componentType":5126,"count":120,"max":[1,1,1],"min":[-1,-1,-1],"type":"VEC3"},{"bufferView":6,"componentType":5126,"count":120,"max":[0.7610265612602234,0.75],"min":[0.3170984387397766,0.125],"type":"VEC2"},{"bufferView":7,"componentType":5123,"count":144,"max":[119],"min":[0],"type":"SCALAR"},{"bufferView":8,"componentType":5126,"count":180,"max":[0.09375,0.27287688851356506,0.09375],"min":[-0.09375,0.21875,-0.09375],"type":"VEC3"},{"bufferView":9,"componentType":5126,"count":180,"max":[0.9278610944747925,0.9413113594055176,0.9278610944747925],"min":[-0.9278610944747925,0.37292104959487915,-0.9278610944747925],"type":"VEC3"},{"bufferView":10,"componentType":5126,"count":180,"max":[0.7920286655426025,0.6142232418060303],"min":[0.032059647142887115,0.109375],"type":"VEC2"},{"bufferView":11,"componentType":5123,"count":252,"max":[179],"min":[0],"type":"SCALAR"},{"bufferView":12,"componentType":5126,"count":120,"max":[0.03125,0.28125,0.03125],"min":[-0.03125,0.21875,-0.03125],"type":"VEC3"},{"bufferView":13,"componentType":5126,"count":120,"max":[1,1,1],"min":[-1,-1,-1],"type":"VEC3"},{"bufferView":14,"componentType":5126,"count":120,"max":[0.3578437566757202,0.359375],"min":[0,0.015625],"type":"VEC2"},{"bufferView":15,"componentType":5123,"count":144,"max":[119],"min":[0],"type":"SCALAR"},{"bufferView":16,"componentType":5126,"count":192,"max":[0.32142436504364014,0.278401255607605,0.015625],"min":[-0.32142436504364014,-0.27898937463760376,-0.015625],"type":"VEC3"},{"bufferView":17,"componentType":5126,"count":192,"max":[0.9973302483558655,1,1],"min":[-0.9973302483558655,-1,-1],"type":"VEC3"},{"bufferView":18,"componentType":5126,"count":192,"max":[0.62109375,0.8146296739578247],"min":[0.03125,0],"type":"VEC2"},{"bufferView":19,"componentType":5123,"count":288,"max":[191],"min":[0],"type":"SCALAR"},{"bufferView":20,"componentType":5126,"count":120,"max":[0.046875,0.484375,0.046875],"min":[-0.046875,0.015625,-0.046875],"type":"VEC3"},{"bufferView":21,"componentType":5126,"count":120,"max":[1,1,1],"min":[-1,-1,-1],"type":"VEC3"},{"bufferView":22,"componentType":5126,"count":120,"max":[0.6812968850135803,0.7890625],"min":[0.03515625,0.109375],"type":"VEC2"},{"bufferView":23,"componentType":5123,"count":144,"max":[119],"min":[0],"type":"SCALAR"},{"bufferView":24,"componentType":5126,"count":120,"max":[0.046875,0.484375,0.046875],"min":[-0.046875,0.015625,-0.046875],"type":"VEC3"},{"bufferView":25,"componentType":5126,"count":120,"max":[1,1,1],"min":[-1,-1,-1],"type":"VEC3"},{"bufferView":26,"componentType":5126,"count":120,"max":[0.7125468850135803,0.8203125],"min":[0.0062031252309679985,0.4453125],"type":"VEC2"},{"bufferView":27,"componentType":5123,"count":144,"max":[119],"min":[0],"type":"SCALAR"},{"bufferView":28,"componentType":5126,"count":216,"max":[0.171875,0.265625,0.171875],"min":[-0.171875,0.0625,-0.171875],"type":"VEC3"},{"bufferView":29,"componentType":5126,"count":216,"max":[1,1,1],"min":[-1,-1,-1],"type":"VEC3"},{"bufferView":30,"componentType":5126,"count":216,"max":[0.7944086194038391,0.7359827756881714],"min":[0.004520312417298555,0.022134363651275635],"type":"VEC2"},{"bufferView":31,"componentType":5123,"count":288,"max":[215],"min":[0],"type":"SCALAR"},{"bufferView":32,"componentType":5126,"count":104,"max":[0.22487999498844147,0.1875,0.22487999498844147],"min":[-0.22487999498844147,0.09375,-0.22487999498844147],"type":"VEC3"},{"bufferView":33,"componentType":5126,"count":104,"max":[0.5854117274284363,1,0.5854117274284363],"min":[-0.5854117274284363,0.8107336163520813,-0.5854117274284363],"type":"VEC3"},{"bufferView":34,"componentType":5126,"count":104,"max":[0.39997032284736633,0.37049734592437744],"min":[0.034797925502061844,0],"type":"VEC2"},{"bufferView":35,"componentType":5123,"count":138,"max":[103],"min":[0],"type":"SCALAR"},{"bufferView":36,"componentType":5126,"count":384,"max":[0.140625,0.03565937653183937,0.140625],"min":[-0.140625,-0.03565937653183937,-0.140625],"type":"VEC3"},{"bufferView":37,"componentType":5126,"count":384,"max":[0.9505606293678284,0.8853362202644348,0.9505606293678284],"min":[-0.9505606293678284,-0.8853364586830139,-0.9505606293678284],"type":"VEC3"},{"bufferView":38,"componentType":5126,"count":384,"max":[0.8092520236968994,0.7368462681770325],"min":[0.06898188591003418,0],"type":"VEC2"},{"bufferView":39,"componentType":5123,"count":576,"max":[383],"min":[0],"type":"SCALAR"},{"bufferView":40,"componentType":5126,"count":76,"max":[0.078125,0.296875,0.03125],"min":[-0.078125,0.2265625,-0.03125],"type":"VEC3"},{"bufferView":41,"componentType":5126,"count":76,"max":[1,1,1],"min":[-1,0,-1],"type":"VEC3"},{"bufferView":42,"componentType":5126,"count":76,"max":[0.35651329159736633,0.7678953409194946],"min":[0.00390625,0],"type":"VEC2"},{"bufferView":43,"componentType":5123,"count":108,"max":[75],"min":[0],"type":"SCALAR"},{"bufferView":44,"componentType":5126,"count":392,"max":[0.4375,0.359375,0.4375],"min":[-0.4375,0.15625,-0.4375],"type":"VEC3"},{"bufferView":45,"componentType":5126,"count":392,"max":[1,1,1],"min":[-1,-1,-1],"type":"VEC3"},{"bufferView":46,"componentType":5126,"count":392,"max":[0.8379203081130981,0.7538875341415405],"min":[0,0],"type":"VEC2"},{"bufferView":47,"componentType":5123,"count":540,"max":[391],"min":[0],"type":"SCALAR"},{"bufferView":48,"componentType":5126,"count":400,"max":[0.4375,1.109375,0.4375],"min":[-0.4375,0.21875,-0.4375],"type":"VEC3"},{"bufferView":49,"componentType":5126,"count":400,"max":[1,1,1],"min":[-1,-1,-1],"type":"VEC3"},{"bufferView":50,"componentType":5126,"count":400,"max":[0.8379203081130981,0.83203125],"min":[0,0],"type":"VEC2"},{"bufferView":51,"componentType":5123,"count":552,"max":[399],"min":[0],"type":"SCALAR"}],"materials":[{"pbrMetallicRoughness":{"metallicFactor":0,"roughnessFactor":1,"baseColorTexture":{"index":0}},"alphaMode":"MASK","alphaCutoff":0.05,"doubleSided":true}],"textures":[{"sampler":0,"source":0,"name":"texture"}],"samplers":[{"magFilter":9728,"minFilter":9728,"wrapS":33071,"wrapT":33071}],"images":[{"mimeType":"image/png","uri":"data:image/png;base64,"}],"meshes":[{"primitives":[{"mode":4,"attributes":{"POSITION":0,"NORMAL":1,"TEXCOORD_0":2},"indices":3,"material":0}]},{"primitives":[{"mode":4,"attributes":{"POSITION":4,"NORMAL":5,"TEXCOORD_0":6},"indices":7,"material":0}]},{"primitives":[{"mode":4,"attributes":{"POSITION":8,"NORMAL":9,"TEXCOORD_0":10},"indices":11,"material":0}]},{"primitives":[{"mode":4,"attributes":{"POSITION":12,"NORMAL":13,"TEXCOORD_0":14},"indices":15,"material":0}]},{"primitives":[{"mode":4,"attributes":{"POSITION":16,"NORMAL":17,"TEXCOORD_0":18},"indices":19,"material":0}]},{"primitives":[{"mode":4,"attributes":{"POSITION":20,"NORMAL":21,"TEXCOORD_0":22},"indices":23,"material":0}]},{"primitives":[{"mode":4,"attributes":{"POSITION":24,"NORMAL":25,"TEXCOORD_0":26},"indices":27,"material":0}]},{"primitives":[{"mode":4,"attributes":{"POSITION":28,"NORMAL":29,"TEXCOORD_0":30},"indices":31,"material":0}]},{"primitives":[{"mode":4,"attributes":{"POSITION":32,"NORMAL":33,"TEXCOORD_0":34},"indices":35,"material":0}]},{"primitives":[{"mode":4,"attributes":{"POSITION":36,"NORMAL":37,"TEXCOORD_0":38},"indices":39,"material":0}]},{"primitives":[{"mode":4,"attributes":{"POSITION":40,"NORMAL":41,"TEXCOORD_0":42},"indices":43,"material":0}]},{"primitives":[{"mode":4,"attributes":{"POSITION":44,"NORMAL":45,"TEXCOORD_0":46},"indices":47,"material":0}]},{"primitives":[{"mode":4,"attributes":{"POSITION":48,"NORMAL":49,"TEXCOORD_0":50},"indices":51,"material":0}]}]}